<?xml version="1.0" standalone="no"?><!DOCTYPE svg PUBLIC "-//W3C//DTD SVG 1.1//EN" "http://www.w3.org/Graphics/SVG/1.1/DTD/svg11.dtd"><svg t="1512028164500" class="icon" style="" viewBox="0 0 1024 1024" version="1.1" xmlns="http://www.w3.org/2000/svg" p-id="3544" xmlns:xlink="http://www.w3.org/1999/xlink" width="200" height="200"><defs><style type="text/css"></style></defs><path d="M778.172431 1011.855989l226.469611-839.458801-409.479855 243.001658v0.016192c0.396704 58.582709-29.234682 115.918632-83.170283 147.922149s-118.43649 30.530043-169.668024 2.104962l-215.823362 128.078835c127.528306 137.745468 338.54264 173.068347 506.364774 73.479362 1.562529-0.931041 3.068387-1.943042 4.614725-2.874083l1.611105 13.326028 139.081309 234.403698z" fill="#FFFFFF" p-id="3545"></path><path d="M511.991904 563.337187c-53.9356 32.003517-118.43649 30.530043-169.668024 2.104962L157.046754 675.402119c125.220944 78.774151 289.262243 86.554414 425.007997 5.991046 135.770042-80.57956 207.541146-228.250733 198.36837-375.913809L595.162187 415.415038c0.396704 58.582709-29.234682 115.918632-83.170283 147.922149z" fill="#D8E5EA" p-id="3546"></path><path d="M256.109498 420.199778c-0.396704-58.598901 29.21849-115.918632 83.162187-147.922148s118.468874-30.546235 169.684216-2.121154l215.823362-128.095027C597.267148 4.332173 386.228527-30.990706 218.430681 68.614471 50.608546 168.19536-19.502877 370.328374 40.286137 548.254325l215.823361-128.054547z" fill="#FFFFFF" p-id="3547"></path><path d="M339.271685 272.27763c53.9356-32.003517 118.468874-30.546235 169.684216-2.121154L694.233027 160.196505c-125.237136-78.822727-289.254147-86.570606-425.007997-6.007237-135.770042 80.57956-207.565434 228.250733-198.376466 375.930001l185.260934-109.911395c-0.396704-58.606997 29.21849-115.926728 83.162187-147.930244z" fill="#D8E5EA" p-id="3548"></path><path d="M40.286137 560.398336a12.127819 12.127819 0 0 1-11.504426-8.282215c-62.517368-186.038151 14.645677-393.773601 183.455524-493.953595C381.047083-42.017468 600.351727-10.224448 733.684871 133.803522a12.160203 12.160203 0 0 1-2.712163 18.69368L515.149347 280.600325a12.135915 12.135915 0 0 1-12.087339 0.170016c-49.175148-27.299736-109.563266-26.554904-157.596877 1.943042-48.009323 28.48985-77.592134 81.130089-77.211622 137.405435a12.144011 12.144011 0 0 1-5.942469 10.52481L46.479582 558.698175c-1.894466 1.125345-4.039908 1.700162-6.193445 1.700161zM425.283666 24.256447c-69.034654 0-138.474108 17.892176-200.651444 54.801874C69.933716 170.858947-3.067982 358.516299 47.264895 529.989733l196.789649-116.752521c1.983522-62.193528 35.630528-119.723755 89.0156-151.403432 53.425552-31.687772 120.0395-33.655102 175.545725-5.594341L705.405517 139.438343C629.813098 63.878307 527.99771 24.256447 425.283666 24.256447z" fill="#33363A" p-id="3549"></path><path d="M501.928567 372.514296c25.032854 42.15591 11.148202 96.585367-31.0239 121.585837-42.123526 25.016662-96.569175 11.148202-121.593933-31.0239-25.00047-42.123526-11.099626-96.601559 31.040092-121.593933 42.139718-25.024758 96.577271-11.107722 121.577741 31.031996z" fill="#FFFFFF" p-id="3550"></path><path d="M349.310734 463.068137c-25.00047-42.123526-11.099626-96.601559 31.040092-121.593933 42.139718-25.016662 96.585367-11.099626 121.585837 31.040092" fill="#D8E5EA" p-id="3551"></path><path d="M425.793715 518.711995c-8.363176 0-16.774927-1.052481-25.097623-3.173635a100.244762 100.244762 0 0 1-61.837303-46.276778 100.171898 100.171898 0 0 1-10.978186-76.418212 100.22857 100.22857 0 0 1 46.268681-61.821112 100.06665 100.06665 0 0 1 76.418213-10.978185 100.204282 100.204282 0 0 1 61.804919 46.268681 100.171898 100.171898 0 0 1 11.01057 76.418213 100.14761 100.14761 0 0 1-46.292969 61.804919 100.042362 100.042362 0 0 1-51.296302 14.176109z m-0.307649-177.545439a76.021508 76.021508 0 0 0-38.941795 10.751497 76.07818 76.07818 0 0 0-35.128575 46.94065 76.070084 76.070084 0 0 0 8.330791 58.015988 76.061988 76.061988 0 0 0 46.948747 35.136672 75.908164 75.908164 0 0 0 58.007892-8.35508 76.013412 76.013412 0 0 0 35.144767-46.916362 76.045796 76.045796 0 0 0-8.363175-58.024084 76.070084 76.070084 0 0 0-46.924458-35.136671 76.806821 76.806821 0 0 0-19.074194-2.41261zM172.267247 580.306418a12.144011 12.144011 0 0 1-6.209637-22.58786l107.822624-63.990842a12.144011 12.144011 0 0 1 12.403084 20.887699l-107.822625 63.990842c-1.951138 1.149633-4.088484 1.700162-6.193446 1.700161zM110.138488 617.118963c-3.165539 0-6.314886-1.295361-8.589864-3.562243a12.006379 12.006379 0 0 1-3.554147-8.581768c0-3.157443 1.295361-6.314886 3.554147-8.581768 4.54186-4.4609 12.637867-4.4609 17.163535 0a12.135915 12.135915 0 0 1-8.573671 20.725779zM53.539301 650.717393c-3.157443 0-6.314886-1.295361-8.589864-3.562243a12.305931 12.305931 0 0 1-3.554147-8.581768c0-3.165539 1.295361-6.314886 3.554147-8.589863 4.614724-4.533764 12.637867-4.533764 17.163536 0 2.266882 2.266882 3.562243 5.424325 3.562243 8.589863 0 3.157443-1.295361 6.30679-3.481283 8.581768-2.33165 2.266882-5.408133 3.562243-8.654632 3.562243zM571.181813 343.562974a12.144011 12.144011 0 0 1-6.209637-22.587861l107.822624-63.958457a12.144011 12.144011 0 0 1 12.403083 20.887699l-107.822624 63.958457c-1.951138 1.149633-4.080388 1.700162-6.193446 1.700162zM741.133198 242.751491c-3.230307 0-6.395846-1.295361-8.581768-3.643203-2.266882-2.185922-3.562243-5.335269-3.562243-8.500808 0-3.230307 1.295361-6.395846 3.562243-8.654631 4.452804-4.4609 12.629771-4.54186 17.163535 0 2.258786 2.258786 3.554147 5.424325 3.554147 8.654631 0 3.165539-1.295361 6.242022-3.554147 8.500808-2.266882 2.347842-5.416229 3.643203-8.581767 3.643203zM797.7 209.153061a12.144011 12.144011 0 0 1-6.209637-22.58786l163.846995-97.249239a12.152107 12.152107 0 0 1 12.403083 20.887698L803.88535 207.4529c-1.943042 1.157729-4.080388 1.700162-6.18535 1.700161z" fill="#33363A" p-id="3552"></path><path d="M778.172431 1024a12.144011 12.144011 0 0 1-10.44385-5.942469l-139.089404-234.403699a3.125059 3.125059 0 0 0-0.105248-0.170016c-167.320182 92.780243-380.374709 59.335637-510.955211-81.704905a12.160203 12.160203 0 0 1 2.712163-18.693681l215.823361-128.078835a12.152107 12.152107 0 0 1 12.087339-0.170016c49.19134 27.29164 109.563266 26.563 157.580685-1.92685s77.616422-81.154377 77.23591-137.421627a12.160203 12.160203 0 0 1 5.942469-10.524809l409.479855-243.009754a12.144011 12.144011 0 1 1 17.92456 13.609388L789.903545 1015.021528a12.144011 12.144011 0 0 1-11.731114 8.978472zM650.838429 773.452863l123.107886 207.476378 211.184349-782.819134-377.913523 224.251305c-1.983522 62.193528-35.630528 119.731851-89.031791 151.419624-53.376976 31.679676-119.990924 33.655102-175.529534 5.578149L145.874264 696.14409c126.394865 126.362481 326.099076 152.204937 480.789487 60.412406l4.558052-2.841698a12.160203 12.160203 0 0 1 18.321264 8.937992l1.295362 10.800073z" fill="#33363A" p-id="3553"></path><path d="M759.324926 719.833007a12.144011 12.144011 0 0 1-12.144011-12.144011V592.134685a12.144011 12.144011 0 0 1 24.288022 0v115.554311a12.144011 12.144011 0 0 1-12.144011 12.144011z" fill="#33363A" p-id="3554"></path><path d="M817.089938 662.051803H701.551818a12.144011 12.144011 0 0 1 0-24.288021h115.53812a12.144011 12.144011 0 0 1 0 24.288021z" fill="#33363A" p-id="3555"></path></svg>