<?xml version="1.0" standalone="no"?><!DOCTYPE svg PUBLIC "-//W3C//DTD SVG 1.1//EN" "http://www.w3.org/Graphics/SVG/1.1/DTD/svg11.dtd"><svg t="1512027800483" class="icon" style="" viewBox="0 0 1024 1024" version="1.1" xmlns="http://www.w3.org/2000/svg" p-id="4429" xmlns:xlink="http://www.w3.org/1999/xlink" width="200" height="200"><defs><style type="text/css"></style></defs><path d="M917.772576 417.810056H797.815157a298.012709 298.012709 0 0 0-17.239677-41.242366l84.941826-84.925818c36.776377-36.784381 36.776377-96.410933 0-133.195314-36.792384-36.768373-96.418937-36.768373-133.203317 0L647.404177 243.38038a302.126541 302.126541 0 0 0-41.250369-17.24768V106.191288c0-52.023167-42.162776-94.177939-94.169935-94.177938-52.023167 0-94.185942 42.154772-94.185942 94.177938v119.933408a301.718359 301.718359 0 0 0-41.218355 17.247681L291.645754 158.430551c-36.792384-36.768373-96.42694-36.768373-133.203317 0-36.776377 36.792384-36.776377 96.418937 0 133.195314L243.392266 376.559687a298.973136 298.973136 0 0 0-17.255684 41.242365H106.179163C54.180007 417.810056 12.009228 459.956825 12.009228 511.987995c0 51.999156 42.162776 94.161931 94.185942 94.161931h119.941412a297.052281 297.052281 0 0 0 17.239677 41.218355L158.45044 732.31811c-36.776377 36.800388-36.776377 96.434944 0 133.18731a93.905817 93.905817 0 0 0 66.60566 27.596289c24.090728 0 48.197463-9.196095 66.589654-27.596289l84.909811-84.925818a301.958466 301.958466 0 0 0 41.234362 17.255684v119.941411c0 51.999156 42.162776 94.169935 94.185942 94.169935 52.007159 0 94.169935-42.170779 94.169935-94.169935V797.827282a303.175008 303.175008 0 0 0 41.25037-17.255684L732.329996 865.497417a93.849792 93.849792 0 0 0 66.589653 27.596289c24.106735 0 48.205466-9.196095 66.589653-27.596289 36.792384-36.784381 36.776377-96.42694 0-133.18731L780.567477 647.400295a298.108752 298.108752 0 0 0 17.239677-41.250369l119.973425-0.016007c51.999156 0 94.169935-42.178783 94.169935-94.161931-0.008004-52.015163-42.178783-94.177939-94.177938-94.161932zM624.754091 511.971988c0 62.179689-50.582525 112.778222-112.770218 112.778221s-112.786225-50.598532-112.786225-112.778221c0-62.195697 50.598532-112.786225 112.786225-112.786226s112.770218 50.598532 112.770218 112.786226z" fill="#FFFFFF" p-id="4430"></path><path d="M647.404177 780.571598L732.329996 865.497417a93.849792 93.849792 0 0 0 66.589653 27.596289c24.106735 0 48.205466-9.196095 66.589653-27.596289a93.769757 93.769757 0 0 0 16.991567-23.194329 94.402038 94.402038 0 0 0-16.991567-23.202332l-84.941825-84.917815a298.012709 298.012709 0 0 0 17.239677-41.242366h28.308606l-45.548283-45.54028a298.108752 298.108752 0 0 0 17.239677-41.250369l119.973425-0.016007c36.328177 0 67.814199-20.617181 83.517192-50.758603-15.702993-30.18144-47.189014-50.798621-83.533199-50.798622H797.815157a298.420891 298.420891 0 0 0-17.239677-41.242365l45.548283-45.524273h-28.308606a298.012709 298.012709 0 0 0-17.239677-41.242366l84.941826-84.925818a94.009864 94.009864 0 0 0 16.991566-23.202333 94.378028 94.378028 0 0 0-16.991566-23.186325c-36.792384-36.800388-96.418937-36.800388-133.203317 0L647.404177 330.147019a302.054509 302.054509 0 0 0-41.250369-17.231674V192.96593c0-52.007159-42.162776-94.169935-94.169935-94.169935-52.023167 0-94.185942 42.162776-94.185942 94.169935v119.957419a302.654776 302.654776 0 0 0-41.218355 17.231673l-84.933822-84.917815c-36.792384-36.800388-96.42694-36.800388-133.203317 0a94.378028 94.378028 0 0 0-16.991567 23.186325 94.009864 94.009864 0 0 0 16.991567 23.202333L243.392266 376.559687a298.973136 298.973136 0 0 0-17.255684 41.242365h-28.300603l45.556287 45.524273a299.805507 299.805507 0 0 0-17.255684 41.242366H106.179163c-36.344185 0-67.830206 20.641192-83.525195 50.798621 15.694989 30.141422 47.197017 50.774611 83.541202 50.774611h119.941412a297.052281 297.052281 0 0 0 17.239677 41.218355l-45.556287 45.56429h28.31661a297.972691 297.972691 0 0 0 17.239677 41.226359l-84.925819 84.925818a94.602128 94.602128 0 0 0-16.991566 23.202332 93.969846 93.969846 0 0 0 16.991566 23.194329 93.905817 93.905817 0 0 0 66.60566 27.596289c24.090728 0 48.197463-9.196095 66.589654-27.596289l84.909811-84.925818a301.958466 301.958466 0 0 0 41.234362 17.255684v119.949415c0 51.999156 42.162776 94.169935 94.185942 94.169935 52.007159 0 94.169935-42.170779 94.169935-94.169935V797.827282a303.27105 303.27105 0 0 0 41.258373-17.255684z m-135.420304-93.073446c-62.187693 0-112.786225-26.555826-112.786225-88.743519a112.049897 112.049897 0 0 1 8.707878-43.379317 112.161947 112.161947 0 0 1-8.707878-43.403328c0-62.195697 50.598532-112.786225 112.786225-112.786226s112.770218 50.590529 112.770218 112.786226c0 15.374847-3.113386 30.037376-8.707878 43.403328a112.049897 112.049897 0 0 1 8.707878 43.379317c0 62.187693-50.590529 88.743519-112.770218 88.743519z" fill="#D8E5EA" p-id="4431"></path><path d="M511.983873 1023.943975c-58.546071 0-106.191288-47.62921-106.191288-106.175281v-111.417616a318.749943 318.749943 0 0 1-26.81194-11.220997L300.137535 873.989198a105.502982 105.502982 0 0 1-75.081435 31.117857 105.510985 105.510985 0 0 1-75.097441-31.117857c-20.056932-20.040924-31.10185-46.692793-31.10185-75.057424s11.044918-55.032507 31.10185-75.097442l78.859117-78.875124a311.498714 311.498714 0 0 1-11.212994-26.795932h-111.409612C47.641095 618.155272 0.003882 570.526062 0.003882 511.987995c0-58.554075 47.62921-106.191288 106.175281-106.191289h111.425619a315.548518 315.548518 0 0 1 11.229001-26.819943l-78.867121-78.86712c-41.394433-41.394433-41.394433-108.768436 0-150.178877 41.402437-41.38643 108.77644-41.378426 150.178877 0l78.86712 78.883128a316.108767 316.108767 0 0 1 26.787929-11.229001V106.191288C405.800588 47.645217 453.437802 0.008004 511.991877 0.008004c58.538068 0 106.175281 47.62921 106.175281 106.183284v111.401609c8.899963 3.249447 17.871959 7.003119 26.819943 11.237004l78.859117-78.883128c41.394433-41.38643 108.768436-41.378426 150.178876 0 41.394433 41.410441 41.394433 108.784443 0 150.178877l-78.875124 78.86712a313.435577 313.435577 0 0 1 11.229001 26.819943H917.828601c28.34062 0 54.992489 11.036915 75.041417 31.085843a105.510985 105.510985 0 0 1 31.117857 75.081435c0 58.538068-47.62921 106.167278-106.175281 106.167278l-111.433623 0.016007a313.019391 313.019391 0 0 1-11.229001 26.819943l78.875124 78.851113a105.486975 105.486975 0 0 1 31.109854 75.073432c0 28.364631-11.044918 55.032507-31.109854 75.089438a105.43095 105.43095 0 0 1-75.081434 31.117857 105.502982 105.502982 0 0 1-75.081435-31.117857l-78.86712-78.867121a316.741049 316.741049 0 0 1-26.827947 11.229001v111.417615c-0.016007 58.538068-47.645217 106.167278-106.183285 106.167278z m-135.420304-255.377723c1.84082 0 3.70565 0.424189 5.43442 1.296578a292.146096 292.146096 0 0 0 39.601635 16.575381 12.005346 12.005346 0 0 1 8.203653 11.389071v119.941412c0 45.308176 36.864416 82.164589 82.180596 82.164589 45.300173 0 82.164589-36.856413 82.164589-82.164589V797.827282a12.005346 12.005346 0 0 1 8.211657-11.389071 292.610303 292.610303 0 0 0 39.617642-16.575381 12.005346 12.005346 0 0 1 13.910194 2.22499l84.925819 84.925819a81.652361 81.652361 0 0 0 58.105875 24.082724c21.953776 0 42.586965-8.547806 58.097872-24.074721a81.660364 81.660364 0 0 0 24.082724-58.113878 81.588332 81.588332 0 0 0-24.074721-58.089869L772.083699 655.892077a12.021353 12.021353 0 0 1-2.224991-13.910194 287.151872 287.151872 0 0 0 16.55137-39.593632 12.005346 12.005346 0 0 1 11.405079-8.243671l119.973426-0.016007c45.300173 0 82.164589-36.848409 82.164589-82.156585a81.660364 81.660364 0 0 0-24.082725-58.105876 81.588332 81.588332 0 0 0-58.065857-24.058713H797.815157a12.021353 12.021353 0 0 1-11.405079-8.243671 288.328396 288.328396 0 0 0-16.543367-39.585628 11.997343 11.997343 0 0 1 2.216988-13.910195l84.941825-84.925818c32.030263-32.038267 32.030263-84.181487 0-116.219754-32.054274-32.030263-84.189491-32.02226-116.219754 0l-84.917815 84.941825a11.981335 11.981335 0 0 1-13.894187 2.224991 292.666328 292.666328 0 0 0-39.609639-16.567378 12.005346 12.005346 0 0 1-8.235667-11.397075V106.191288c0-45.308176-36.856413-82.172592-82.164589-82.172592S429.803277 60.875108 429.803277 106.191288v119.933408c0 5.178306-3.313476 9.772352-8.227664 11.397075a291.369751 291.369751 0 0 0-39.577624 16.567378 12.005346 12.005346 0 0 1-13.902191-2.224991L283.161976 166.922333c-32.038267-32.014256-84.173484-32.038267-116.219754 0-32.030263 32.046271-32.030263 84.189491 0 116.219754l84.941825 84.925818a12.005346 12.005346 0 0 1 2.216988 13.918198 288.504475 288.504475 0 0 0-16.567378 39.593632 11.997343 11.997343 0 0 1-11.397075 8.227664H106.179163C60.870987 429.815402 24.014574 466.679818 24.014574 511.987995c0 45.300173 36.864416 82.156585 82.180596 82.156585h119.941412a12.005346 12.005346 0 0 1 11.405078 8.243671 285.903316 285.903316 0 0 0 16.543367 39.553614 12.005346 12.005346 0 0 1-2.216987 13.918198L166.934218 740.801888a81.716389 81.716389 0 0 0-24.066717 58.121883c0 21.945773 8.547806 42.570957 24.066717 58.081864a81.644357 81.644357 0 0 0 58.121882 24.082725 81.636354 81.636354 0 0 0 58.105876-24.082725l84.909811-84.925818a12.005346 12.005346 0 0 1 8.491782-3.513565z m135.420304-131.810697c-68.814644 0-124.791571-55.976927-124.791571-124.783567s55.976927-124.791571 124.791571-124.791572c68.80664 0 124.775564 55.984931 124.775564 124.791572 0 68.80664-55.976927 124.783568-124.775564 124.783567z m0-225.564446c-55.568745 0-100.780879 45.20413-100.780879 100.780879 0 55.560742 45.20413 100.772875 100.780879 100.772875 55.560742 0 100.764872-45.20413 100.764872-100.772875s-45.20413-100.780879-100.764872-100.780879z" fill="#33363A" p-id="4432"></path><path d="M511.983873 511.963984m-175.526164 0a175.526164 175.526164 0 1 0 351.052328 0 175.526164 175.526164 0 1 0-351.052328 0Z" fill="#95A2A5" p-id="4433"></path><path d="M336.457709 511.963984a175.526164 134.451873 0 1 0 351.052328 0 175.526164 134.451873 0 1 0-351.052328 0Z" fill="#808E93" p-id="4434"></path><path d="M336.457709 511.963984c0 96.947172 78.586996 175.534168 175.526164 175.534168S687.510037 608.919159 687.510037 511.963984H336.457709z" fill="#FFFFFF" p-id="4435"></path><path d="M511.983873 646.415857c96.931165 0 175.526164-60.202809 175.526164-134.451873H336.457709c0 74.257068 78.586996 134.451873 175.526164 134.451873z" fill="#D8E5EA" p-id="4436"></path><path d="M511.983873 324.448481c-103.406048 0-187.53151 84.125462-187.53151 187.523507 0 103.406048 84.125462 187.539514 187.53151 187.539513S699.515383 615.386039 699.515383 511.971988c-0.008004-103.406048-84.125462-187.523507-187.53151-187.523507z m0 24.010692c86.110346 0 156.725792 66.949814 162.912547 151.507468h-325.825094c6.186755-84.565658 76.794197-151.507468 162.912547-151.507468z m0 327.033632c-86.110346 0-156.725792-66.957817-162.912547-151.523475h325.81709c-6.186755 84.565658-76.794197 151.523475-162.904543 151.523475z" fill="#33363A" p-id="4437"></path><path d="M511.983873 532.076941m-58.033843 0a58.033843 58.033843 0 1 0 116.067686 0 58.033843 58.033843 0 1 0-116.067686 0Z" fill="#A7BBC1" p-id="4438"></path><path d="M511.983873 512.348155m-58.033843 0a58.033843 58.033843 0 1 0 116.067686 0 58.033843 58.033843 0 1 0-116.067686 0Z" fill="#FFFFFF" p-id="4439"></path><path d="M470.9496 553.390432a58.041847 58.041847 0 0 1 82.068546-82.084554" fill="#D8E5EA" p-id="4440"></path><path d="M511.983873 582.347327a69.871114 69.871114 0 0 1-49.526055-20.465114c-27.308161-27.316164-27.308161-71.751952 0-99.060113a69.582986 69.582986 0 0 1 49.526055-20.513134c18.712333 0 36.296163 7.291247 49.526055 20.513134 27.308161 27.308161 27.308161 71.751952 0 99.060113a69.8391 69.8391 0 0 1-49.526055 20.465114z m0-116.035673a45.700351 45.700351 0 0 0-32.542492 13.486006 46.100529 46.100529 0 0 0 0 65.108994 46.092526 46.092526 0 0 0 65.092987 0 46.100529 46.100529 0 0 0 0-65.100991 45.700351 45.700351 0 0 0-32.550495-13.494009z" fill="#33363A" p-id="4441"></path></svg>