<?xml version="1.0" standalone="no"?><!DOCTYPE svg PUBLIC "-//W3C//DTD SVG 1.1//EN" "http://www.w3.org/Graphics/SVG/1.1/DTD/svg11.dtd"><svg t="1512117902870" class="icon" style="" viewBox="0 0 1024 1024" version="1.1" xmlns="http://www.w3.org/2000/svg" p-id="3792" xmlns:xlink="http://www.w3.org/1999/xlink" width="200" height="200"><defs><style type="text/css"></style></defs><path d="M572.004352 717.83936 572.004352 408.064c0-36.100096 56.395776-36.100096 56.395776 0l0 309.77536C628.400128 753.942528 572.004352 753.942528 572.004352 717.83936L572.004352 717.83936 572.004352 717.83936 572.004352 717.83936zM402.760704 717.83936 402.760704 408.064c0-36.100096 56.423424-36.100096 56.423424 0l0 309.77536C459.185152 753.942528 402.760704 753.942528 402.760704 717.83936L402.760704 717.83936 402.760704 717.83936 402.760704 717.83936zM851.545088 267.251712 741.246976 267.251712l0-56.3456c0-46.646272-37.926912-84.467712-83.74784-84.467712L374.560768 126.4384c-46.718976 0-84.61824 37.82144-84.61824 84.467712l0 56.3456L179.643392 267.251712c-36.153344 0-36.153344 56.2944 0 56.2944l671.901696 0C887.671808 323.546112 887.671808 267.251712 851.545088 267.251712L851.545088 267.251712 851.545088 267.251712 851.545088 267.251712zM346.365952 210.911232c0-14.963712 13.213696-28.177408 28.19584-28.177408l282.938368 0c14.98112 0 27.323392 11.44832 27.323392 28.177408l0 56.34048L346.365952 267.251712 346.365952 210.911232 346.365952 210.911232 346.365952 210.911232zM713.022464 914.9696 318.138368 914.9696c-46.697472 0-84.590592-37.815296-84.590592-84.462592L233.547776 408.064c0-16.730112 13.213696-28.173312 28.19584-28.173312 14.98624 0 28.199936 11.4432 28.199936 28.173312l0 422.441984c0 14.930944 13.236224 28.14464 28.19584 28.14464l394.884096 0c14.98112 0 28.223488-13.213696 28.223488-28.14464l0-421.57056c0-36.97152 56.395776-36.97152 56.395776 0l0 421.57056C797.642752 877.154304 759.743488 914.9696 713.022464 914.9696L713.022464 914.9696 713.022464 914.9696zM713.022464 914.9696" p-id="3793" fill="#C8C8CD"></path></svg>