<?xml version="1.0" standalone="no"?><!DOCTYPE svg PUBLIC "-//W3C//DTD SVG 1.1//EN" "http://www.w3.org/Graphics/SVG/1.1/DTD/svg11.dtd"><svg t="1512147845517" class="icon" style="" viewBox="0 0 1024 1024" version="1.1" xmlns="http://www.w3.org/2000/svg" p-id="1560" xmlns:xlink="http://www.w3.org/1999/xlink" width="200" height="200"><defs><style type="text/css"></style></defs><path d="M876.928 314.048c-52.928-52.928-123.264-82.048-198.016-82.048L385.088 232 385.088 175.808c0-17.92-12.288-24.64-27.456-14.912L222.4 248.192C207.296 257.984 207.424 273.664 222.72 283.136l134.656 83.392c15.168 9.472 27.712 2.496 27.712-15.424L385.088 295.104l293.888 0c119.552 0 216.832 97.344 216.832 216.832 0 19.84-2.624 39.424-7.872 58.24-4.672 16.832 5.184 34.176 22.016 38.784 2.816 0.896 5.632 1.28 8.448 1.28 13.824 0 26.496-9.216 30.4-23.104C955.52 562.752 958.848 537.472 958.848 512 958.848 437.248 929.728 366.848 876.928 314.048zM824.768 740.864l-134.592-83.392c-15.296-9.472-27.84-2.56-27.84 15.424l0 55.872L345.152 728.768c-119.552 0-216.832-97.28-216.832-216.832 0-41.856 11.968-82.496 34.56-117.504 9.472-14.656 5.248-34.24-9.344-43.712C138.88 341.312 119.296 345.536 109.888 360.128 80.64 405.376 65.152 457.92 65.152 512c0 74.816 29.12 145.088 81.984 197.952 52.864 52.928 123.2 82.048 198.016 82.048l317.248 0 0 56.192c0 17.984 12.352 24.704 27.456 14.912l135.232-87.36C840.192 766.016 840.064 750.336 824.768 740.864z" p-id="1561" fill="#C8C8CD"></path></svg>