<?xml version="1.0" standalone="no"?><!DOCTYPE svg PUBLIC "-//W3C//DTD SVG 1.1//EN" "http://www.w3.org/Graphics/SVG/1.1/DTD/svg11.dtd"><svg t="1512051013854" class="icon" style="" viewBox="0 0 1024 1024" version="1.1" xmlns="http://www.w3.org/2000/svg" p-id="3701" xmlns:xlink="http://www.w3.org/1999/xlink" width="200" height="200"><defs><style type="text/css"></style></defs><path d="M1012.093023 512c0 127.428465-103.34462 230.804837-230.820713 230.804837H242.719752C115.251597 742.804837 11.906977 639.428465 11.906977 512c0-127.507845 103.34462-230.804837 230.812775-230.804837h538.552558c127.476093 0 230.820713 103.30493 230.820713 230.804837z" fill="#DCE7EA" p-id="3702"></path><path d="M781.27231 281.195163H242.719752C115.251597 281.195163 11.906977 384.500093 11.906977 512h1000.186046c0-127.499907-103.34462-230.804837-230.820713-230.804837z" fill="#D3DFE2" p-id="3703"></path><path d="M781.27231 754.711814H242.719752C108.885333 754.711814 0 645.834419 0 512s108.885333-242.711814 242.719752-242.711814h538.552558C915.114667 269.288186 1024 378.165581 1024 512s-108.885333 242.711814-242.72769 242.711814zM242.719752 293.10214C122.01476 293.10214 23.813953 391.295008 23.813953 512s98.200806 218.89786 218.905799 218.89786h538.552558C901.977302 730.89786 1000.186047 632.704992 1000.186047 512s-98.208744-218.89786-218.913737-218.89786H242.719752z" fill="#33363A" p-id="3704"></path><path d="M346.929612 452.338109c55.168992 55.224558 55.168992 144.62214 0 199.814945-55.145178 55.161054-144.58245 55.161054-199.743503 0-55.161054-55.192806-55.153116-144.590388 0-199.814945 55.161054-55.145178 144.598326-55.145178 199.743503 0z" fill="#A7BBC1" p-id="3705"></path><path d="M247.061829 504.220775m-141.240558 0a141.240558 141.240558 0 1 0 282.481117 0 141.240558 141.240558 0 1 0-282.481117 0Z" fill="#FFFFFF" p-id="3706"></path><path d="M147.186109 604.096496c-55.161054-55.161054-55.153116-144.606264 0-199.751442 55.161054-55.161054 144.598326-55.161054 199.743503 0" fill="#D8E5EA" p-id="3707"></path><path d="M247.069767 657.296868c-39.221581 0-78.435225-14.923411-108.297922-44.786108a152.155287 152.155287 0 0 1-44.85755-108.305861c0-40.904434 15.931535-79.371907 44.85755-108.289984a152.115597 152.115597 0 0 1 108.297922-44.857551c40.912372 0 79.371907 15.931535 108.289985 44.857551a152.107659 152.107659 0 0 1 44.865488 108.289984c0 40.912372-15.931535 79.379845-44.865488 108.305861a152.69507 152.69507 0 0 1-108.289985 44.786108z m-0.007938-282.417612a128.492155 128.492155 0 0 0-91.453519 37.880062c-24.425178 24.425178-37.880062 56.899473-37.880062 91.453519s13.446946 67.028341 37.880062 91.461458c50.437953 50.422078 132.484961 50.41414 182.907039 0a128.500093 128.500093 0 0 0 37.888-91.461458c0-34.546109-13.454884-67.020403-37.888-91.445581a128.420713 128.420713 0 0 0-91.45352-37.888zM648.763535 426.619039H547.974946a11.906977 11.906977 0 0 0-11.906977 11.906977v146.947968a11.906977 11.906977 0 1 0 23.813953 0v-61.582883h76.974636v61.582883a11.906977 11.906977 0 1 0 23.813954 0V438.526016a11.906977 11.906977 0 0 0-11.906977-11.906977z m-88.881613 73.458108v-49.644155h76.974636v49.644155h-76.974636zM823.994543 511.984124v-73.458108a11.906977 11.906977 0 0 0-11.906977-11.906977H711.298977a11.906977 11.906977 0 0 0-11.906977 11.906977v146.947968a11.906977 11.906977 0 1 0 23.813953 0v-61.582883h32.029768l47.048434 68.33017a11.883163 11.883163 0 0 0 16.558636 3.048186 11.906977 11.906977 0 0 0 3.056124-16.558635l-37.753055-54.827659h27.941706c6.580589 0.007938 11.906977-5.31845 11.906977-11.899039z m-100.78859-61.551132h76.974636v49.644155h-76.974636v-49.644155z" fill="#33363A" p-id="3708"></path></svg>