<?xml version="1.0" standalone="no"?><!DOCTYPE svg PUBLIC "-//W3C//DTD SVG 1.1//EN" "http://www.w3.org/Graphics/SVG/1.1/DTD/svg11.dtd"><svg t="1511879565160" class="icon" style="" viewBox="0 0 1024 1024" version="1.1" xmlns="http://www.w3.org/2000/svg" p-id="801" xmlns:xlink="http://www.w3.org/1999/xlink" width="200" height="200"><defs><style type="text/css"></style></defs><path d="M512 960.128A448.192 448.192 0 1 1 512.128 63.744 448.192 448.192 0 0 1 512 960.128z m255.616-438.784V520.96a21.44 21.44 0 0 0-5.888-16.256L635.776 377.856l-6.144-5.952-32.256-32.576-11.904-11.776a23.616 23.616 0 0 0-16.896-7.168 20.288 20.288 0 0 0-14.976 6.144 21.76 21.76 0 0 0-3.584 25.6l146.944 147.84H277.568a21.312 21.312 0 0 0-21.248 21.44c0 11.776 9.536 21.376 21.248 21.376h419.392l-143.488 144.384a21.184 21.184 0 0 0 1.792 28.224 21.248 21.248 0 0 0 30.016 0.128l176.448-177.472v-0.128a21.056 21.056 0 0 0 5.888-16.192v-0.384z" fill="#cdcdcd" p-id="802"></path></svg>