<?xml version="1.0" standalone="no"?><!DOCTYPE svg PUBLIC "-//W3C//DTD SVG 1.1//EN" "http://www.w3.org/Graphics/SVG/1.1/DTD/svg11.dtd"><svg t="1512228904782" class="icon" style="" viewBox="0 0 1024 1024" version="1.1" xmlns="http://www.w3.org/2000/svg" p-id="4846" xmlns:xlink="http://www.w3.org/1999/xlink" width="200" height="200"><defs><style type="text/css"></style></defs><path d="M512 125.1c213.4 0 386.9 173.6 386.9 386.9S725.4 898.9 512 898.9 125.1 725.4 125.1 512 298.6 125.1 512 125.1z m0-61.1C264.6 64 64 264.6 64 512s200.6 448 448 448 448-200.6 448-448S759.4 64 512 64" fill="#FFFFFF" p-id="4847"></path><path d="M425.3 720.2c-29.1 0-50.1-23.4-50.1-55.7v-305c0-32.3 21.1-55.7 50.1-55.7 10.3 0 20.8 3 31 8.9l264.2 152.5c19 10.9 29.8 28 29.8 46.8 0 18.8-10.9 35.9-29.8 46.8L456.3 711.3c-10.2 5.9-20.6 8.9-31 8.9z m11.1-348.4l-0.1 280.4 242.9-140.1-242.8-140.3z" fill="#FFFFFF" p-id="4848"></path></svg>