<?xml version="1.0" standalone="no"?><!DOCTYPE svg PUBLIC "-//W3C//DTD SVG 1.1//EN" "http://www.w3.org/Graphics/SVG/1.1/DTD/svg11.dtd"><svg t="1501165866102" class="icon" style="" viewBox="0 0 1024 1024" version="1.1" xmlns="http://www.w3.org/2000/svg" p-id="2677" xmlns:xlink="http://www.w3.org/1999/xlink" width="200" height="200"><defs><style type="text/css"></style></defs><path d="M511.999488 0.023536C229.232027 0.023536 0.004093 229.242078 0.004093 512.001023c0 282.755876 229.227934 511.974417 511.995395 511.974417 282.768484 0 511.996418-229.218542 511.996418-511.974417C1023.995907 229.242078 794.767973 0.023536 511.999488 0.023536zM511.999488 984.592478c-261.018243 0-472.612866-211.584929-472.612866-472.591455 0-261.009595 211.594622-472.595548 472.612866-472.595548 261.02029 0 472.613889 211.584929 472.613889 472.595548C984.613377 773.008572 773.017732 984.592478 511.999488 984.592478zM448.050464 302.141388c-3.606279-4.128017-8.896989-6.744611-14.817058-6.744611-4.333879 0-8.326984 1.412163-11.577137 3.780093-0.928177 0.655939-1.823606 1.382487-2.655588 2.217505-4.85374 4.866844-6.673253 11.624758-5.461609 17.911952l0 386.002354c-1.212668 6.287193 0.607869 13.046131 5.461609 17.915022 7.750839 7.788383 20.328811 7.788383 28.078626 0l255.766421-196.511629c3.961381-3.970428 5.890392-9.199523 5.812617-14.404058 0.077774-5.204535-1.851237-10.432607-5.812617-14.404058L448.050464 302.141388zM452.922624 668.948565 452.922624 355.668489 656.781758 512.308015 452.922624 668.948565z" p-id="2678" fill="#FFFFFF"></path></svg>