<?xml version="1.0" standalone="no"?><!DOCTYPE svg PUBLIC "-//W3C//DTD SVG 1.1//EN" "http://www.w3.org/Graphics/SVG/1.1/DTD/svg11.dtd"><svg t="1500391890031" class="icon" style="" viewBox="0 0 1024 1024" version="1.1" xmlns="http://www.w3.org/2000/svg" p-id="1428" xmlns:xlink="http://www.w3.org/1999/xlink" width="200" height="200"><defs><style type="text/css"></style></defs><path d="M621.664 653.664c-44.48 31.68-98.88 50.336-157.664 50.336-150.208 0-272-121.792-272-272s121.792-272 272-272c150.208 0 272 121.792 272 272 0 75.104-30.432 143.104-79.68 192.32l191.904 191.904c8.8 8.8 8.576 22.912-0.256 31.744-8.896 8.896-23.04 8.96-31.744 0.256l-194.592-194.592zM464 672c132.544 0 240-107.456 240-240s-107.456-240-240-240c-132.544 0-240 107.456-240 240s107.456 240 240 240l0 0z" p-id="1429" fill="#8a8a8a"></path></svg>