<?xml version="1.0" standalone="no"?><!DOCTYPE svg PUBLIC "-//W3C//DTD SVG 1.1//EN" "http://www.w3.org/Graphics/SVG/1.1/DTD/svg11.dtd"><svg t="1512314037187" class="icon" style="" viewBox="0 0 1024 1024" version="1.1" xmlns="http://www.w3.org/2000/svg" p-id="4001" xmlns:xlink="http://www.w3.org/1999/xlink" width="200" height="200"><defs><style type="text/css"></style></defs><path d="M788.673978 396.123629c-57.172483 0-108.219342-24.502493-143.952144-63.298106L426.241276 457.37986c5.104686 18.376869 9.188435 36.753739 9.188435 56.151546 0 31.649053-8.167498 61.256231-21.439681 88.821535L624.303091 722.823529c34.711864-54.109671 95.968096-90.86341 165.391824-90.863409 108.219342 0 196.01994 87.800598 196.01994 196.01994s-87.800598 196.01994-196.01994 196.01994S593.674975 936.199402 593.674975 827.98006c0-7.14656 1.020937-14.293121 2.041874-21.439681L356.817547 670.755733l1.020938-1.020937c-32.66999 25.52343-73.507478 40.837488-118.428714 40.837487C130.169492 710.572283 42.368893 622.771685 42.368893 513.531406c0-108.219342 87.800598-196.01994 196.01994-196.01994 57.172483 0 108.219342 24.502493 143.952144 63.298105l218.480558-124.554337c-5.104686-18.376869-9.188435-36.753739-9.188434-56.151545C591.633101 91.884347 680.454636 3.062812 788.673978 3.062812S984.693918 91.884347 984.693918 200.103689c0 108.219342-87.800598 196.01994-196.01994 196.01994z m0 550.285145c65.33998 0 117.407777-53.088734 117.407777-117.407777 0-65.33998-53.088734-117.407777-117.407777-117.407777s-117.407777 53.088734-117.407777 117.407777c-1.020937 64.319043 52.067797 117.407777 117.407777 117.407777zM238.388833 396.123629c-65.33998 0-117.407777 53.088734-117.407776 117.407777 0 65.33998 53.088734 117.407777 117.407776 117.407776 65.33998 0 117.407777-53.088734 117.407777-117.407776 1.020937-64.319043-52.067797-117.407777-117.407777-117.407777zM788.673978 81.674975c-65.33998 0-117.407777 53.088734-117.407777 117.407777S724.354935 316.490528 788.673978 316.490528s117.407777-53.088734 117.407777-117.407776S852.993021 81.674975 788.673978 81.674975z" p-id="4002" fill="#FFFFFF"></path></svg>