<?xml version="1.0" standalone="no"?><!DOCTYPE svg PUBLIC "-//W3C//DTD SVG 1.1//EN" "http://www.w3.org/Graphics/SVG/1.1/DTD/svg11.dtd"><svg t="1512028224945" class="icon" style="" viewBox="0 0 1024 1024" version="1.1" xmlns="http://www.w3.org/2000/svg" p-id="3701" xmlns:xlink="http://www.w3.org/1999/xlink" width="200" height="200"><defs><style type="text/css"></style></defs><path d="M619.682588 769.520097L500.077437 726.061082l163.039941-59.237334c0.0323-1.187008 0.169573-2.325566 0.169572-3.528723s-0.145348-2.341716-0.169572-3.520649L500.077437 600.545118l119.613226-43.46709a150.790345 150.790345 0 0 0-107.686626-45.073991c-83.558878 0-151.307137 67.740184-151.307137 151.290988s67.756334 151.299062 151.307137 151.299062c42.150884 0.008075 80.240102-17.272172 107.678551-45.07399z" fill="#8D9AA3" p-id="3702"></path><path d="M541.186661 616.363811l1.195082-0.444118-42.312381-15.374575 102.736723-37.330179a112.539629 112.539629 0 0 0-52.688605-13.089384c-62.499586 0-113.177545 50.677959-113.177545 113.177545S487.609819 776.480645 550.11748 776.480645c19.048646 0 36.93451-4.78033 52.688605-13.097459L500.077437 726.061082l42.312381-15.390725-1.195082-0.436043 121.971091-44.298803c0.048449-0.880162 0.129198-1.752249 0.129198-2.632411 0-0.888237-0.080749-1.752249-0.129198-2.632412l-121.979166-44.306877z" fill="#5E707A" p-id="3703"></path><path d="M511.995963 826.714485c-90.107607 0-163.41946-73.311853-163.419461-163.411385 0-90.099532 73.311853-163.40331 163.419461-163.403311 44.024256 0 85.335352 17.288322 116.302524 48.675389a12.128473 12.128473 0 0 1-4.473485 19.896509l-88.282684 32.081505 131.717474 47.851751c4.675357 1.695725 7.84071 6.080386 7.961834 11.062588l0.064599 1.017435c0.064599 0.928611 0.121123 1.857223 0.121123 2.818134 0 0.952836-0.056524 1.881447-0.121123 2.810059l-0.064599 1.033585a12.096173 12.096173 0 0 1-7.961834 11.062588l-131.717474 47.85175 88.282684 32.073431a12.112323 12.112323 0 0 1 4.473485 19.896509c-30.975247 31.395141-72.286343 48.683463-116.302524 48.683463z m0-302.598125c-76.751753 0-139.194814 62.434987-139.194815 139.178665 0 76.751753 62.443062 139.18674 139.194815 139.186739a137.999732 137.999732 0 0 0 84.414815-28.536632l-100.475756-36.506541a12.104248 12.104248 0 0 1 0-22.771167l141.407332-51.372399-141.407332-51.372399a12.104248 12.104248 0 0 1 0-22.771167L596.410778 552.644918a137.935133 137.935133 0 0 0-84.414815-28.528558z" fill="#33363A" p-id="3704"></path><path d="M271.089936 466.913897L151.484785 423.446808l163.03994-59.237334c0.0323-1.178933 0.177647-2.317491 0.177648-3.512574 0-1.195083-0.145348-2.341716-0.177648-3.528723L151.484785 297.938918l119.613225-43.467089a150.838794 150.838794 0 0 0-107.686625-45.082066C79.852507 209.397838 12.112323 277.138022 12.112323 360.704975c0 83.558878 67.740184 151.299062 151.290987 151.299062 42.158958 0 80.248176-17.280247 107.686626-45.09014z" fill="#8D9AA3" p-id="3705"></path><path d="M192.610158 313.757612l1.203158-0.444119-42.328531-15.374575 102.736722-37.330179a112.47503 112.47503 0 0 0-52.672454-13.081309c-62.515736 0-113.193695 50.677959-113.193695 113.177545 0 62.491511 50.669884 113.16947 113.193695 113.16947 19.032497 0 36.93451-4.772255 52.672454-13.089384L151.484785 423.446808l42.328531-15.374576-1.203158-0.436043 121.963017-44.306877c0.064599-0.872087 0.129198-1.752249 0.129198-2.624337 0-0.888237-0.064599-1.760324-0.129198-2.632411l-121.963017-44.314952z" fill="#5E707A" p-id="3706"></path><path d="M163.40331 524.11636C73.303778 524.11636 0 450.812582 0 360.704975c0-90.115682 73.303778-163.41946 163.40331-163.41946 44.016181 0 85.319202 17.288322 116.302525 48.683463a12.128473 12.128473 0 0 1-4.473485 19.896509l-88.282684 32.081506 131.717474 47.85175c4.675357 1.695725 7.84071 6.080386 7.961833 11.062588l0.064599 1.033585c0.064599 0.928611 0.121123 1.857223 0.121124 2.818134 0 0.952836-0.056524 1.873373-0.121124 2.801984l-0.064599 1.02551a12.112323 12.112323 0 0 1-7.961833 11.062588L186.949666 423.446808l88.282684 32.081505a12.112323 12.112323 0 0 1 4.473485 19.896509c-30.983322 31.403216-72.286343 48.691538-116.302525 48.691538z m0-302.606199C86.659633 221.510161 24.224646 283.953222 24.224646 360.704975c0 76.751753 62.434987 139.18674 139.178664 139.18674 30.910648 0 60.262844-10.020928 84.414816-28.544708L147.34237 434.832391a12.104248 12.104248 0 0 1 0-22.771167l141.399257-51.372399-141.399257-51.372398a12.104248 12.104248 0 0 1 0-22.771167l100.475756-36.514616a138.064331 138.064331 0 0 0-84.414816-28.520483z" fill="#33363A" p-id="3707"></path><path d="M968.25909 466.913897l-119.613226-43.467089 163.039941-59.237334c0.0323-1.178933 0.185722-2.317491 0.185722-3.512574 0-1.195083-0.161498-2.341716-0.185722-3.528723l-163.039941-59.237334 119.613226-43.467089a150.838794 150.838794 0 0 0-107.686625-45.082066c-83.558878 0-151.290988 67.748259-151.290988 151.307137 0 83.558878 67.740184 151.299062 151.290988 151.299063 42.158958 0.01615 80.248176-17.264098 107.686625-45.073991z" fill="#8D9AA3" p-id="3708"></path><path d="M889.779313 313.757612l1.195082-0.444119-42.328531-15.374575 102.736723-37.330179a112.47503 112.47503 0 0 0-52.672455-13.081309c-62.515736 0-113.177545 50.677959-113.177545 113.177545 0 62.491511 50.653734 113.16947 113.177545 113.16947 19.032497 0 36.93451-4.772255 52.672455-13.089384l-102.736723-37.330179 42.328531-15.374575-1.195082-0.436043 121.963016-44.306877c0.064599-0.872087 0.145348-1.752249 0.145348-2.624337 0-0.888237-0.080749-1.760324-0.145348-2.632412l-121.963016-44.323026z" fill="#5E707A" p-id="3709"></path><path d="M860.572465 524.11636c-90.099532 0-163.40331-73.311853-163.40331-163.411385 0-90.115682 73.303778-163.41946 163.40331-163.41946 44.016181 0 85.319202 17.288322 116.302524 48.683463a12.128473 12.128473 0 0 1-4.473484 19.896509l-88.282684 32.081506 131.717473 47.85175c4.675357 1.695725 7.84071 6.080386 7.961834 11.062588l0.064599 0.977061c0.072674 0.952836 0.137273 1.897597 0.137273 2.874658 0 0.968986-0.064599 1.913747-0.137273 2.858508l-0.064599 0.968986a12.112323 12.112323 0 0 1-7.961834 11.062588L884.118821 423.446808l88.282684 32.081505a12.112323 12.112323 0 0 1 4.473484 19.896509c-30.983322 31.403216-72.294418 48.691538-116.302524 48.691538z m0-302.606199c-76.743678 0-139.178665 62.443062-139.178665 139.194814 0 76.751753 62.434987 139.18674 139.178665 139.18674 30.910648 0 60.262844-10.020928 84.414815-28.544708l-100.475755-36.514616a12.104248 12.104248 0 0 1 0-22.771167l141.399257-51.372399-141.399257-51.372398a12.104248 12.104248 0 0 1 0-22.771167l100.475755-36.514616a138.064331 138.064331 0 0 0-84.414815-28.520483zM628.532658 382.337584h-62.798356a12.112323 12.112323 0 1 1 0-24.224646h62.798356a12.112323 12.112323 0 1 1 0 24.224646zM513.780511 382.337584h-0.726739a12.112323 12.112323 0 1 1 0-24.224646c6.686002 0 12.475693 5.418246 12.475693 12.112323s-5.062951 12.112323-11.748954 12.112323zM471.863799 382.337584h-0.726739a12.112323 12.112323 0 1 1 0-24.224646c6.686002 0 12.475693 5.418246 12.475693 12.112323s-5.062951 12.112323-11.748954 12.112323zM429.939013 382.337584h-0.72674a12.112323 12.112323 0 1 1 0-24.224646c6.686002 0 12.475693 5.418246 12.475693 12.112323s-5.062951 12.112323-11.748953 12.112323zM273.237854 687.745767h-62.798356a12.112323 12.112323 0 1 1 0-24.224645h62.798356a12.112323 12.112323 0 1 1 0 24.224645zM158.485707 687.745767h-0.726739a12.112323 12.112323 0 1 1 0-24.224645c6.686002 0 12.475693 5.418246 12.475692 12.112323s-5.062951 12.112323-11.748953 12.112322zM116.568995 687.745767h-0.726739a12.112323 12.112323 0 1 1 0-24.224645c6.686002 0 12.475693 5.418246 12.475692 12.112323s-5.062951 12.112323-11.748953 12.112322zM74.644208 687.745767h-0.726739a12.112323 12.112323 0 1 1 0-24.224645c6.686002 0 12.475693 5.418246 12.475693 12.112323s-5.062951 12.112323-11.748954 12.112322z" fill="#33363A" p-id="3710"></path></svg>