<?xml version="1.0" standalone="no"?><!DOCTYPE svg PUBLIC "-//W3C//DTD SVG 1.1//EN" "http://www.w3.org/Graphics/SVG/1.1/DTD/svg11.dtd"><svg t="1512218633837" class="icon" style="" viewBox="0 0 1024 1024" version="1.1" xmlns="http://www.w3.org/2000/svg" p-id="4095" xmlns:xlink="http://www.w3.org/1999/xlink" width="200" height="200"><defs><style type="text/css"></style></defs><path d="M908.459009 640.064724c0 189.053774-153.203264 342.308203-342.30718 342.308203-121.884978 0-228.938156-63.74993-289.591561-159.737074 0 0-126.543068 8.119935-154.818041 8.889461s-62.664202-24.26566-65.679885-58.563814 23.555485-63.637366 58.588373-65.655326 114.550942-6.598278 114.550942-6.598278c-3.520173-19.682271-5.357008-39.947827-5.357008-60.642149 0-57.756425 14.306844-112.168686 39.566134-159.89057 0 0-8.375761-2.322905-20.59813-14.412244S134.002458 349.768105 114.502335 330.08788s-26.195615-60.168358 2.479471-88.019683 71.075779-15.328104 87.969541 2.480494 123.890658 130.539079 128.234593 135.648446 4.344958 5.109368 4.344958 5.109368c17.61724-15.820314 36.884049-29.839609 57.509808-41.768289 0 0-44.093241-190.264345-52.679803-225.537709s14.775518-67.113537 46.414099-74.730005 67.584258 13.173021 74.852802 46.439682 49.501414 212.130352 49.501414 212.130352c17.281595-2.688225 34.988886-4.084015 53.021587-4.084015 11.750625 0 23.363104 0.591471 34.808784 1.746784 0 0 16.155958-137.986701 20.135596-174.313048s37.736463-57.71447 68.953442-54.695716 58.356083 36.82265 54.645574 69.026096-20.645203 179.211615-21.397333 185.410803-1.968841 9.918907-1.968841 9.918907c25.427112 12.94994 49.018414 28.983101 70.282716 47.608298 0 0 44.925189-81.442894 61.309344-114.182552s55.293327-40.402175 84.274382-25.314549 41.48381 54.103222 25.341155 84.299965S874.686834 491.596298 874.686834 491.596298C896.330784 536.505114 908.459009 586.866105 908.459009 640.064724zM566.152852 422.223301c-120.3009 0-217.841424 97.5395-217.841424 217.742163 0 120.400161 97.540524 217.940684 217.841424 217.940684 120.325459 0 217.8404-97.5395 217.8404-217.940684C783.992229 519.762801 686.478312 422.223301 566.152852 422.223301z" p-id="4096" fill="#FFFFFF"></path><path d="M513.043261 616.807021c0 13.784958-11.05887 25.043373-24.868387 25.043373l0 0c-13.68672 0-24.892947-11.258415-24.892947-25.043373l0-66.349127c0-13.81054 11.206226-24.943089 24.892947-24.943089l0 0c13.809517 0 24.868387 11.132548 24.868387 24.943089L513.043261 616.807021z" p-id="4097" fill="#FFFFFF"></path><path d="M685.362908 616.807021c0 13.784958-11.131525 25.043373-24.917506 25.043373l0 0c-13.71128 0-24.844851-11.258415-24.844851-25.043373l0-66.349127c0-13.81054 11.133571-24.943089 24.844851-24.943089l0 0c13.785981 0 24.917506 11.132548 24.917506 24.943089L685.362908 616.807021z" p-id="4098" fill="#FFFFFF"></path><path d="M453.264782 738.546689c-5.950526-4.808516-6.79373-13.388938-1.983167-19.21462l0 0c4.76042-5.875824 13.338796-6.745634 19.241226-1.960655l0 0c1.784646 1.388627 3.619434 2.828418 5.454222 4.166903l0 0c61.09138 46.166459 145.589866 41.925878 201.823612-7.188726l0 0c5.702885-4.958942 14.332427-4.439102 19.264762 1.239224l0 0c5.009084 5.699816 4.463662 14.430664-1.214664 19.289322l0 0c-66.051345 57.670467-164.708296 62.431911-236.386802 8.53028l0 0C457.430662 741.868341 455.272509 740.182956 453.264782 738.546689L453.264782 738.546689z" p-id="4099" fill="#FFFFFF"></path></svg>